<svg xmlns="http://www.w3.org/2000/svg" xmlns:xlink="http://www.w3.org/1999/xlink" width="500" zoomAndPan="magnify" viewBox="0 0 375 374.999991" height="500" preserveAspectRatio="xMidYMid meet" version="1.0"><defs><g/></defs><g fill="#000000" fill-opacity="1"><g transform="translate(169.91216, 239.842642)"><g><path d="M 7.953125 5.722656 C 14.164062 5.058594 20.46875 -0.152344 18.636719 -3.726562 L 20.945312 -4.746094 C 25.269531 -6.753906 30.523438 -9.148438 36.59375 -12.019531 C 36.871094 -12.144531 36.945312 -12.347656 36.925781 -12.539062 C 36.882812 -12.921875 36.671875 -13.089844 36.386719 -13.058594 C 36.289062 -13.050781 36.195312 -13.039062 36.195312 -13.039062 L 20.449219 -5.757812 L 18.238281 -4.746094 C 17.164062 -6.660156 14.773438 -8.242188 11.121094 -9.882812 C 6.769531 -11.738281 3.984375 -13.371094 4.265625 -17.074219 C 4.753906 -24.277344 18.246094 -32.769531 27.035156 -33.707031 C 31.140625 -34.144531 33.226562 -32.722656 33.054688 -29.808594 C 32.882812 -26.890625 30.980469 -23.886719 27.710938 -21.023438 C 27.625 -20.917969 27.453125 -20.707031 27.472656 -20.515625 C 27.503906 -20.230469 27.8125 -20.070312 28.097656 -20.097656 C 28.195312 -20.109375 28.386719 -20.128906 28.46875 -20.234375 C 31.921875 -23.210938 33.886719 -26.515625 34.125 -29.726562 C 34.40625 -33.429688 31.699219 -35.265625 26.921875 -34.757812 C 17.941406 -33.800781 3.71875 -24.9375 3.097656 -17.144531 C 2.804688 -12.667969 6.296875 -10.71875 10.746094 -8.875 C 14.089844 -7.398438 16.28125 -5.890625 17.21875 -4.347656 C 5.523438 1.054688 3.160156 2.464844 3.34375 4.183594 C 3.488281 5.523438 5.46875 5.988281 7.953125 5.722656 Z M 7.839844 4.671875 C 5.929688 4.875 4.542969 4.539062 4.492188 4.0625 C 4.398438 3.203125 6.75 1.695312 17.710938 -3.339844 C 17.839844 -3.0625 17.859375 -2.871094 17.878906 -2.679688 C 18.183594 0.1875 12.808594 4.140625 7.839844 4.671875 Z M 7.839844 4.671875 "/></g></g></g><g fill="#000000" fill-opacity="1"><g transform="translate(204.398955, 236.163877)"><g><path d="M 12.90625 -1.28125 C 16.25 -1.636719 24.652344 -6.203125 29.59375 -10.597656 C 29.679688 -10.703125 29.757812 -10.902344 29.734375 -11.09375 C 29.703125 -11.382812 29.492188 -11.550781 29.207031 -11.523438 C 29.015625 -11.5 28.921875 -11.492188 28.835938 -11.386719 C 23.914062 -6.800781 15.746094 -2.742188 12.785156 -2.425781 C 11.160156 -2.253906 10.347656 -2.648438 10.214844 -3.890625 C 10.019531 -5.707031 11.304688 -8.164062 12.277344 -9.910156 C 12.84375 -10.9375 13.164062 -11.550781 13.125 -11.933594 C 13.082031 -12.3125 12.765625 -12.570312 12.382812 -12.527344 C 11.90625 -12.476562 10.839844 -11.589844 9 -9.847656 C 8.3125 -10.839844 7.601562 -11.148438 6.171875 -10.996094 C 2.921875 -10.648438 -5.105469 -4.382812 -4.757812 -1.136719 C -4.65625 -0.179688 -3.925781 0.324219 -2.875 0.210938 C -0.203125 -0.0742188 5.253906 -5.101562 8.960938 -8.394531 C 9.664062 -9.050781 10.28125 -9.597656 10.726562 -9.9375 C 10.898438 -10.148438 11.195312 -10.082031 10.9375 -9.765625 C 9.976562 -7.925781 8.957031 -5.691406 9.164062 -3.78125 C 9.367188 -1.867188 10.613281 -1.035156 12.90625 -1.28125 Z M -3 -0.9375 C -3.476562 -0.886719 -3.675781 -0.960938 -3.707031 -1.246094 C -3.953125 -3.539062 3.035156 -9.597656 6.28125 -9.945312 C 7.332031 -10.058594 7.640625 -9.898438 8.105469 -9.175781 C 4.503906 -5.792969 -0.707031 -1.179688 -3 -0.9375 Z M -3 -0.9375 "/></g></g></g><g fill="#000000" fill-opacity="1"><g transform="translate(232.294088, 233.188256)"><g><path d="M -2.675781 0.285156 C -2.292969 0.246094 -1.515625 -0.613281 -0.449219 -1.496094 C 2.992188 -4.570312 9.945312 -10.917969 13.003906 -11.242188 C 13.386719 -11.285156 13.511719 -11.007812 13.53125 -10.816406 C 13.582031 -10.339844 13.363281 -8.769531 13.125 -7.390625 C 12.972656 -6.117188 12.816406 -4.84375 12.878906 -4.273438 C 13 -3.125 13.929688 -2.550781 15.269531 -2.691406 C 18.707031 -3.058594 24.460938 -6.183594 29.882812 -10.628906 C 30.0625 -10.742188 30.136719 -10.945312 30.117188 -11.136719 C 30.085938 -11.421875 29.78125 -11.582031 29.492188 -11.550781 L 29.207031 -11.523438 C 23.882812 -7.089844 18.308594 -4.078125 15.15625 -3.742188 C 14.394531 -3.660156 14.074219 -3.917969 14.023438 -4.394531 C 13.972656 -4.871094 14.050781 -5.945312 14.300781 -7.226562 C 14.4375 -8.691406 14.65625 -10.257812 14.5625 -11.117188 C 14.472656 -11.980469 13.847656 -12.394531 12.890625 -12.292969 C 10.40625 -12.027344 6.191406 -8.96875 -0.773438 -2.71875 C -1.21875 -2.382812 -1.355469 -2.753906 -1.195312 -3.0625 C 0.589844 -6.246094 4.1875 -11.460938 7.703125 -14.734375 C 7.789062 -14.839844 7.863281 -15.042969 7.84375 -15.234375 C 7.8125 -15.519531 7.601562 -15.691406 7.316406 -15.660156 C 7.125 -15.640625 7.027344 -15.628906 6.945312 -15.523438 C 1.851562 -10.730469 -3.398438 -1.957031 -3.550781 -0.683594 C -3.585938 -0.101562 -3.25 0.347656 -2.675781 0.285156 Z M -2.675781 0.285156 "/></g></g></g><g fill="#000000" fill-opacity="1"><g transform="translate(260.47582, 230.182062)"><g><path d="M 9.660156 -0.933594 C 13.289062 -1.320312 21.476562 -5.191406 27.492188 -10.371094 C 27.675781 -10.488281 27.75 -10.691406 27.730469 -10.882812 C 27.699219 -11.167969 27.476562 -11.433594 27.09375 -11.394531 C 27 -11.382812 26.914062 -11.277344 26.820312 -11.265625 C 20.980469 -6.199219 12.976562 -2.445312 9.535156 -2.082031 C 7.914062 -1.90625 7.097656 -2.304688 6.964844 -3.546875 C 6.875 -4.40625 7.644531 -6.226562 8.824219 -8.769531 C 8.824219 -8.769531 8.824219 -8.769531 8.832031 -8.671875 C 8.863281 -8.386719 9.179688 -8.128906 9.46875 -8.160156 C 9.753906 -8.191406 9.925781 -8.402344 9.992188 -8.699219 C 9.929688 -9.273438 9.78125 -9.738281 9.550781 -10.101562 L 11.082031 -12.96875 C 23.910156 -27.671875 41.3125 -50.207031 41.046875 -52.691406 C 40.964844 -53.453125 40.4375 -53.878906 39.578125 -53.789062 C 36.140625 -53.421875 18.851562 -28.871094 10.492188 -13.96875 C 9.628906 -13.007812 8.847656 -12.152344 8.082031 -11.199219 C 7.667969 -11.445312 7.085938 -11.480469 6.511719 -11.417969 C 2.210938 -10.960938 -3.875 -4.609375 -3.496094 -1.078125 C -3.40625 -0.214844 -2.78125 0.199219 -2.113281 0.128906 C -0.488281 -0.0429688 2.722656 -3.480469 7.199219 -8.59375 C 7.550781 -8.921875 7.761719 -8.75 7.515625 -8.339844 C 6.414062 -6 5.824219 -4.292969 5.914062 -3.433594 C 6.117188 -1.523438 7.460938 -0.699219 9.660156 -0.933594 Z M 14.351562 -18.535156 C 23.234375 -33.109375 37.109375 -52.464844 39.691406 -52.738281 C 39.976562 -52.769531 39.988281 -52.671875 39.996094 -52.578125 C 40.191406 -50.761719 26.265625 -32.753906 14.351562 -18.535156 Z M -2.042969 -1.039062 C -2.140625 -1.027344 -2.328125 -1.007812 -2.359375 -1.292969 C -2.667969 -4.160156 3.003906 -9.886719 6.632812 -10.273438 L 7.300781 -10.34375 C 2.484375 -4.804688 -1.085938 -1.140625 -2.042969 -1.039062 Z M -2.042969 -1.039062 "/></g></g></g><g fill="#000000" fill-opacity="1"><g transform="translate(286.364799, 227.420441)"><g><path d="M 0.105469 4.625 C 3.257812 4.289062 7.011719 0.507812 8.625 -2.464844 L 8.890625 -2.6875 C 11.292969 -3.71875 14.25 -5 17.394531 -6.300781 C 20.542969 -7.601562 23.878906 -8.925781 26.644531 -10.183594 C 26.921875 -10.3125 26.996094 -10.511719 26.964844 -10.800781 C 26.933594 -11.085938 26.722656 -11.257812 26.4375 -11.226562 L 26.246094 -11.207031 C 23.480469 -9.945312 20.144531 -8.621094 16.996094 -7.320312 C 14.402344 -6.269531 11.820312 -5.125 9.597656 -4.210938 C 9.515625 -4.105469 9.410156 -4.191406 9.386719 -4.382812 C 9.464844 -4.585938 9.441406 -4.777344 9.527344 -4.882812 C 9.425781 -5.835938 8.714844 -6.148438 7.570312 -6.023438 C 6.804688 -5.945312 5.871094 -5.652344 4.839844 -5.347656 C 3.808594 -5.042969 2.683594 -4.730469 1.824219 -4.640625 C 0.964844 -4.546875 0.65625 -4.707031 0.625 -4.996094 C 0.390625 -7.191406 4.953125 -11.542969 7.820312 -11.847656 C 8.296875 -11.898438 8.414062 -11.71875 8.441406 -11.433594 C 8.515625 -10.761719 7.765625 -9.621094 7.136719 -9.167969 C 6.957031 -9.050781 6.882812 -8.851562 6.902344 -8.660156 C 6.945312 -8.277344 7.25 -8.117188 7.535156 -8.148438 C 7.632812 -8.15625 7.726562 -8.167969 7.8125 -8.273438 C 8.621094 -8.84375 9.359375 -10.082031 9.523438 -11.257812 C 9.609375 -11.363281 9.589844 -11.554688 9.578125 -11.648438 C 9.488281 -12.511719 8.757812 -13.011719 7.707031 -12.898438 C 4.265625 -12.53125 -0.816406 -7.644531 -0.519531 -4.871094 C -0.40625 -3.820312 0.503906 -3.433594 1.9375 -3.589844 C 2.890625 -3.691406 4.015625 -4.003906 5.144531 -4.316406 C 5.898438 -4.492188 8.246094 -5.132812 8.371094 -4.855469 C 8.59375 -4.589844 8.261719 -4.070312 8.027344 -3.5625 C 8.035156 -3.464844 7.941406 -3.457031 7.84375 -3.445312 C 4.175781 -1.605469 -1.84375 1.742188 -1.648438 3.558594 C -1.558594 4.417969 -0.945312 4.738281 0.105469 4.625 Z M -0.015625 3.480469 C -0.492188 3.53125 -0.589844 3.542969 -0.609375 3.351562 C -0.660156 2.871094 2.480469 0.605469 6.320312 -1.445312 C 6.605469 -1.476562 6.710938 -1.390625 6.539062 -1.179688 C 4.84375 1.027344 2.183594 3.246094 -0.015625 3.480469 Z M -0.015625 3.480469 "/></g></g></g><g fill="#000000" fill-opacity="1"><g transform="translate(68.529154, 202.014578)"><g><path d="M 11.542969 0.40625 C 16.320312 0.40625 21.019531 -2.671875 21.019531 -7.734375 C 21.019531 -12.3125 16.808594 -14.09375 12.3125 -15.875 C 8.871094 -17.292969 4.699219 -18.832031 4.699219 -22.640625 C 4.699219 -26.082031 7.492188 -27.984375 10.773438 -27.984375 C 15.390625 -27.984375 18.226562 -25.472656 19.722656 -21.949219 L 20.128906 -22.074219 L 19.964844 -26.769531 C 18.386719 -27.621094 15.753906 -28.632812 12.070312 -28.632812 C 6.117188 -28.632812 2.1875 -25.636719 2.1875 -20.898438 C 2.1875 -16.605469 5.222656 -14.902344 10.003906 -13 C 13.40625 -11.625 18.386719 -9.761719 18.386719 -5.710938 C 18.386719 -2.429688 15.59375 -0.324219 12.351562 -0.324219 C 6.722656 -0.324219 3.644531 -3.929688 2.066406 -8.179688 L 1.621094 -8.101562 L 1.824219 -2.46875 C 3.726562 -1.09375 7.289062 0.40625 11.542969 0.40625 Z M 11.542969 0.40625 "/></g></g></g><g fill="#000000" fill-opacity="1"><g transform="translate(103.2793, 202.014578)"><g><path d="M 2.066406 0 L 8.625 0 L 8.625 -0.527344 C 7.371094 -0.890625 7.007812 -1.824219 7.007812 -5.144531 L 7.007812 -14.703125 L 22.4375 -14.703125 L 22.4375 -5.144531 C 22.4375 -1.824219 22.03125 -0.890625 20.816406 -0.527344 L 20.816406 0 L 27.378906 0 L 27.378906 -0.527344 C 26.121094 -0.890625 25.757812 -1.824219 25.757812 -5.144531 L 25.757812 -23.207031 C 25.757812 -26.527344 26.121094 -27.457031 27.378906 -27.824219 L 27.378906 -28.351562 L 20.816406 -28.351562 L 20.816406 -27.824219 C 22.03125 -27.457031 22.4375 -26.527344 22.4375 -23.207031 L 22.4375 -15.347656 L 7.007812 -15.347656 L 7.007812 -23.207031 C 7.007812 -26.527344 7.371094 -27.457031 8.625 -27.824219 L 8.625 -28.351562 L 2.066406 -28.351562 L 2.066406 -27.824219 C 3.28125 -27.457031 3.683594 -26.527344 3.683594 -23.207031 L 3.683594 -5.144531 C 3.683594 -1.824219 3.28125 -0.890625 2.066406 -0.527344 Z M 2.066406 0 "/></g></g></g><g fill="#000000" fill-opacity="1"><g transform="translate(145.116852, 202.014578)"><g><path d="M -0.6875 0 L 3.886719 0 L 3.886719 -0.527344 C 2.511719 -0.808594 2.347656 -2.148438 3.402344 -4.777344 L 5.792969 -10.691406 L 17.210938 -10.691406 L 19.683594 -4.738281 C 20.980469 -1.699219 21.304688 -0.890625 20.046875 -0.527344 L 20.046875 0 L 26.324219 0 L 26.324219 -0.527344 C 25.472656 -0.890625 24.503906 -1.699219 23.246094 -4.738281 L 13.285156 -28.675781 L 10.246094 -27.296875 L 10.609375 -26.445312 C 10.933594 -25.796875 10.976562 -25.273438 10.691406 -24.542969 L 2.714844 -4.777344 C 1.457031 -1.699219 0.445312 -0.890625 -0.6875 -0.527344 Z M 6.035156 -11.300781 L 11.421875 -24.625 L 16.96875 -11.300781 Z M 6.035156 -11.300781 "/></g></g></g><g fill="#000000" fill-opacity="1"><g transform="translate(183.511948, 202.014578)"><g><path d="M 22.679688 0.285156 C 23.488281 0.285156 24.542969 0.203125 25.152344 0 L 25.152344 -0.484375 C 24.949219 -0.445312 24.746094 -0.445312 24.503906 -0.445312 C 23.125 -0.445312 22.316406 -1.78125 20.371094 -6.640625 C 18.425781 -11.625 17.65625 -14.09375 12.675781 -14.742188 C 17.941406 -15.347656 20.695312 -18.226562 20.695312 -22.03125 C 20.695312 -25.636719 18.265625 -28.351562 10.042969 -28.351562 L 2.066406 -28.351562 L 2.066406 -27.824219 C 3.320312 -27.457031 3.683594 -26.527344 3.683594 -23.207031 L 3.683594 -5.144531 C 3.683594 -1.824219 3.320312 -0.890625 2.066406 -0.527344 L 2.066406 0 L 8.625 0 L 8.625 -0.527344 C 7.371094 -0.890625 7.007812 -1.824219 7.007812 -5.144531 L 7.007812 -14.621094 L 9.597656 -14.621094 C 14.457031 -14.621094 14.78125 -11.785156 17.132812 -6.195312 C 18.914062 -1.984375 19.5625 0.285156 22.679688 0.285156 Z M 7.007812 -15.226562 L 7.007812 -27.660156 C 7.65625 -27.703125 8.300781 -27.742188 8.910156 -27.742188 C 14.902344 -27.742188 17.253906 -24.703125 17.253906 -21.101562 C 17.253906 -17.65625 15.066406 -15.226562 10.410156 -15.226562 Z M 7.007812 -15.226562 "/></g></g></g><g fill="#000000" fill-opacity="1"><g transform="translate(220.732562, 202.014578)"><g><path d="M 16.523438 0.40625 C 23.328125 0.40625 30.859375 -4.050781 30.859375 -14.054688 C 30.859375 -23.976562 23.367188 -28.675781 16.523438 -28.675781 C 7.9375 -28.675781 2.105469 -22.519531 2.105469 -14.214844 C 2.105469 -4.171875 9.640625 0.40625 16.523438 0.40625 Z M 5.347656 -16.5625 C 5.101562 -23.164062 8.707031 -27.742188 14.863281 -27.742188 C 22.113281 -27.742188 27.417969 -19.84375 27.703125 -11.378906 C 27.90625 -5.304688 24.703125 -0.609375 18.226562 -0.609375 C 10.976562 -0.609375 5.628906 -8.425781 5.347656 -16.5625 Z M 5.347656 -16.5625 "/></g></g></g><g fill="#000000" fill-opacity="1"><g transform="translate(266.093568, 202.014578)"><g><path d="M 23.449219 0.324219 L 23.976562 0.324219 L 23.976562 -23.207031 C 23.976562 -26.527344 24.339844 -27.457031 25.597656 -27.824219 L 25.597656 -28.351562 L 20.492188 -28.351562 L 20.492188 -27.824219 C 22.316406 -27.335938 23.289062 -26.203125 23.289062 -21.585938 L 23.289062 -5.425781 L 5.589844 -28.351562 L 1.621094 -28.351562 L 1.621094 -27.824219 C 3.238281 -27.457031 3.726562 -26.527344 3.726562 -23.207031 L 3.726562 -5.144531 C 3.726562 -1.824219 3.320312 -0.890625 2.105469 -0.527344 L 2.105469 0 L 7.167969 0 L 7.167969 -0.527344 C 5.347656 -1.011719 4.375 -2.148438 4.375 -6.761719 L 4.375 -24.503906 Z M 23.449219 0.324219 "/></g></g></g></svg>